<svg width="1440" height="1103" viewBox="0 0 1440 1103" fill="none" xmlns="http://www.w3.org/2000/svg">
    <path fill-rule="evenodd" clip-rule="evenodd"
          d="M130.173 8.80737C308.807 -36.8784 310.558 109.313 583.763 124.161C856.967 139.008 793.919 234.946 986.564 230.378C1179.21 225.809 1149.07 176.421 1283.92 183.274C1336.3 185.936 1506.33 231.179 1542 389.986C1598.15 639.989 1509.6 1048.45 1541.73 1081.91C1541.73 1081.91 1277.4 1045.17 1179.01 1043.93C1036.04 1042.13 787.136 1104.76 644.168 1102.96C534.101 1101.58 269.818 1050.04 159.751 1048.66C100.5 1047.91 -101 1061.23 -101 1061.23C-101 1061.23 -152.554 542.153 -76.2929 230.378C-43.3298 95.6168 76.2628 22.5946 130.173 8.80737Z"
          fill="black"/>
</svg>
