<svg width="47" height="41" viewBox="0 0 47 41" fill="none" xmlns="http://www.w3.org/2000/svg">
<path fill-rule="evenodd" clip-rule="evenodd" d="M5.875 0C4.31685 0 2.82252 0.61709 1.72075 1.71552C0.618971 2.81394 0 4.30373 0 5.85714V35.1429C0 36.6963 0.618971 38.1861 1.72075 39.2845C2.82252 40.3829 4.31685 41 5.875 41H41.125C42.6831 41 44.1775 40.3829 45.2793 39.2845C46.381 38.1861 47 36.6963 47 35.1429V5.85714C47 4.30373 46.381 2.81394 45.2793 1.71552C44.1775 0.61709 42.6831 0 41.125 0H5.875ZM14.6875 5.85714H32.3125V17.5714H14.6875V5.85714ZM38.1875 29.2857V35.1429H41.125V29.2857H38.1875ZM32.3125 23.4286H14.6875V35.1429H32.3125V23.4286ZM38.1875 23.4286H41.125V17.5714H38.1875V23.4286ZM41.125 11.7143V5.85714H38.1875V11.7143H41.125ZM8.8125 5.85714V11.7143H5.875V5.85714H8.8125ZM8.8125 17.5714H5.875V23.4286H8.8125V17.5714ZM5.875 29.2857H8.8125V35.1429H5.875V29.2857Z" fill="#6171FF"/>
</svg>
